<mxfile host="app.diagrams.net" agent="Mozilla/5.0 (Macintosh; Intel Mac OS X 10_15_7) AppleWebKit/537.36 (KHTML, like Gecko) Chrome/135.0.0.0 Safari/537.36" version="26.2.13">
  <diagram name="第 1 页" id="9LsFG9vtLOfaItnVJWMc">
    <mxGraphModel dx="1143" dy="1153" grid="1" gridSize="10" guides="1" tooltips="1" connect="1" arrows="1" fold="1" page="1" pageScale="1" pageWidth="827" pageHeight="1169" math="0" shadow="0">
      <root>
        <mxCell id="0" />
        <mxCell id="1" parent="0" />
        <mxCell id="VqNDP3gpzhkmqE2VPTWX-1" value="MCP主机 (MCP Hosts)&#xa;AI应用程序&#xa;如聊天机器人、AI驱动IDE" style="whiteSpace=wrap;strokeWidth=2;fontFamily=Verdana;fontColor=default;fontSize=18;" vertex="1" parent="1">
          <mxGeometry x="1095" y="670" width="260" height="100" as="geometry" />
        </mxCell>
        <mxCell id="VqNDP3gpzhkmqE2VPTWX-2" value="MCP客户端 (MCP Clients)&#xa;与服务器1:1连接" style="whiteSpace=wrap;strokeWidth=2;fontFamily=Verdana;fontColor=default;fontSize=18;" vertex="1" parent="1">
          <mxGeometry x="1095" y="810" width="260" height="100" as="geometry" />
        </mxCell>
        <mxCell id="VqNDP3gpzhkmqE2VPTWX-3" value="MCP服务器 (MCP Servers)&#xa;提供上下文、工具和提示信息" style="whiteSpace=wrap;strokeWidth=2;fontFamily=Verdana;fontColor=default;fontSize=18;" vertex="1" parent="1">
          <mxGeometry x="1095" y="990" width="260" height="100" as="geometry" />
        </mxCell>
        <mxCell id="VqNDP3gpzhkmqE2VPTWX-4" value="本地资源 (Local Resources)&#xa;文件、数据库" style="whiteSpace=wrap;strokeWidth=2;fontFamily=Verdana;fontColor=default;fontSize=18;" vertex="1" parent="1">
          <mxGeometry x="1030" y="1137" width="190" height="100" as="geometry" />
        </mxCell>
        <mxCell id="VqNDP3gpzhkmqE2VPTWX-5" value="远程资源 (Remote Resources)&#xa;API服务、远程数据" style="whiteSpace=wrap;strokeWidth=2;fontFamily=Verdana;fontColor=default;fontSize=18;" vertex="1" parent="1">
          <mxGeometry x="1234" y="1137" width="190" height="100" as="geometry" />
        </mxCell>
        <mxCell id="VqNDP3gpzhkmqE2VPTWX-6" value="" style="curved=1;startArrow=none;endArrow=block;exitX=0.5;exitY=1;entryX=0.5;entryY=0;rounded=0;fontFamily=Verdana;fontColor=default;fontSize=18;strokeWidth=2;" edge="1" parent="1" source="VqNDP3gpzhkmqE2VPTWX-1" target="VqNDP3gpzhkmqE2VPTWX-2">
          <mxGeometry relative="1" as="geometry">
            <Array as="points" />
          </mxGeometry>
        </mxCell>
        <mxCell id="VqNDP3gpzhkmqE2VPTWX-7" value="请求" style="curved=1;startArrow=none;endArrow=block;exitX=0.44;exitY=1;entryX=0.44;entryY=0;rounded=0;fontFamily=Verdana;fontColor=default;fontSize=18;strokeWidth=2;" edge="1" parent="1" source="VqNDP3gpzhkmqE2VPTWX-2" target="VqNDP3gpzhkmqE2VPTWX-3">
          <mxGeometry relative="1" as="geometry">
            <Array as="points">
              <mxPoint x="1197" y="936" />
            </Array>
          </mxGeometry>
        </mxCell>
        <mxCell id="VqNDP3gpzhkmqE2VPTWX-8" value="响应" style="curved=1;dashed=1;dashPattern=2 3;startArrow=none;endArrow=block;exitX=0.56;exitY=0;entryX=0.56;entryY=1;rounded=0;fontFamily=Verdana;fontColor=default;fontSize=18;strokeWidth=2;" edge="1" parent="1" source="VqNDP3gpzhkmqE2VPTWX-3" target="VqNDP3gpzhkmqE2VPTWX-2">
          <mxGeometry relative="1" as="geometry">
            <Array as="points">
              <mxPoint x="1253" y="936" />
            </Array>
          </mxGeometry>
        </mxCell>
        <mxCell id="VqNDP3gpzhkmqE2VPTWX-9" value="" style="endArrow=classic;html=1;rounded=0;entryX=0.769;entryY=-0.005;entryDx=0;entryDy=0;entryPerimeter=0;exitX=0.25;exitY=1;exitDx=0;exitDy=0;" edge="1" parent="1">
          <mxGeometry width="50" height="50" relative="1" as="geometry">
            <mxPoint x="1290" y="1090" as="sourcePoint" />
            <mxPoint x="1290" y="1137" as="targetPoint" />
          </mxGeometry>
        </mxCell>
        <mxCell id="VqNDP3gpzhkmqE2VPTWX-10" value="" style="endArrow=classic;html=1;rounded=0;entryX=0.769;entryY=-0.005;entryDx=0;entryDy=0;entryPerimeter=0;exitX=0.25;exitY=1;exitDx=0;exitDy=0;" edge="1" parent="1">
          <mxGeometry width="50" height="50" relative="1" as="geometry">
            <mxPoint x="1159" y="1090" as="sourcePoint" />
            <mxPoint x="1159" y="1137" as="targetPoint" />
          </mxGeometry>
        </mxCell>
        <mxCell id="VqNDP3gpzhkmqE2VPTWX-11" value="" style="curved=1;endArrow=none;html=1;rounded=0;strokeWidth=2;startFill=0;" edge="1" parent="1">
          <mxGeometry width="50" height="50" relative="1" as="geometry">
            <mxPoint x="1355" y="720" as="sourcePoint" />
            <mxPoint x="1405" y="670" as="targetPoint" />
            <Array as="points">
              <mxPoint x="1405" y="720" />
              <mxPoint x="1355" y="670" />
            </Array>
          </mxGeometry>
        </mxCell>
        <mxCell id="VqNDP3gpzhkmqE2VPTWX-12" value="&lt;font style=&quot;font-size: 18px;&quot;&gt;S101&lt;/font&gt;" style="text;html=1;align=center;verticalAlign=middle;whiteSpace=wrap;rounded=0;fontStyle=1" vertex="1" parent="1">
          <mxGeometry x="1410" y="660" width="40" height="20" as="geometry" />
        </mxCell>
        <mxCell id="VqNDP3gpzhkmqE2VPTWX-13" value="" style="curved=1;endArrow=none;html=1;rounded=0;strokeWidth=2;startFill=0;" edge="1" parent="1">
          <mxGeometry width="50" height="50" relative="1" as="geometry">
            <mxPoint x="1355" y="860" as="sourcePoint" />
            <mxPoint x="1405" y="810" as="targetPoint" />
            <Array as="points">
              <mxPoint x="1405" y="860" />
              <mxPoint x="1355" y="810" />
            </Array>
          </mxGeometry>
        </mxCell>
        <mxCell id="VqNDP3gpzhkmqE2VPTWX-14" value="&lt;font style=&quot;font-size: 18px;&quot;&gt;S102&lt;/font&gt;" style="text;html=1;align=center;verticalAlign=middle;whiteSpace=wrap;rounded=0;fontStyle=1" vertex="1" parent="1">
          <mxGeometry x="1410" y="800" width="40" height="20" as="geometry" />
        </mxCell>
        <mxCell id="VqNDP3gpzhkmqE2VPTWX-15" value="" style="curved=1;endArrow=none;html=1;rounded=0;strokeWidth=2;startFill=0;" edge="1" parent="1">
          <mxGeometry width="50" height="50" relative="1" as="geometry">
            <mxPoint x="1355" y="1040" as="sourcePoint" />
            <mxPoint x="1405" y="990" as="targetPoint" />
            <Array as="points">
              <mxPoint x="1405" y="1040" />
              <mxPoint x="1355" y="990" />
            </Array>
          </mxGeometry>
        </mxCell>
        <mxCell id="VqNDP3gpzhkmqE2VPTWX-16" value="&lt;font style=&quot;font-size: 18px;&quot;&gt;S103&lt;/font&gt;" style="text;html=1;align=center;verticalAlign=middle;whiteSpace=wrap;rounded=0;fontStyle=1" vertex="1" parent="1">
          <mxGeometry x="1410" y="980" width="40" height="20" as="geometry" />
        </mxCell>
        <mxCell id="VqNDP3gpzhkmqE2VPTWX-17" value="" style="curved=1;endArrow=none;html=1;rounded=0;strokeWidth=2;startFill=0;" edge="1" parent="1">
          <mxGeometry width="50" height="50" relative="1" as="geometry">
            <mxPoint x="1424" y="1197" as="sourcePoint" />
            <mxPoint x="1474" y="1147" as="targetPoint" />
            <Array as="points">
              <mxPoint x="1474" y="1197" />
              <mxPoint x="1424" y="1147" />
            </Array>
          </mxGeometry>
        </mxCell>
        <mxCell id="VqNDP3gpzhkmqE2VPTWX-18" value="&lt;font style=&quot;font-size: 18px;&quot;&gt;S104&lt;/font&gt;" style="text;html=1;align=center;verticalAlign=middle;whiteSpace=wrap;rounded=0;fontStyle=1" vertex="1" parent="1">
          <mxGeometry x="1479" y="1137" width="40" height="20" as="geometry" />
        </mxCell>
        <mxCell id="VqNDP3gpzhkmqE2VPTWX-19" value="" style="curved=1;endArrow=none;html=1;rounded=0;strokeWidth=2;startFill=0;" edge="1" parent="1">
          <mxGeometry width="50" height="50" relative="1" as="geometry">
            <mxPoint x="980" y="1230" as="sourcePoint" />
            <mxPoint x="1030" y="1180" as="targetPoint" />
            <Array as="points">
              <mxPoint x="1030" y="1230" />
              <mxPoint x="980" y="1180" />
            </Array>
          </mxGeometry>
        </mxCell>
        <mxCell id="VqNDP3gpzhkmqE2VPTWX-20" value="&lt;font style=&quot;font-size: 18px;&quot;&gt;S104&lt;/font&gt;" style="text;html=1;align=center;verticalAlign=middle;whiteSpace=wrap;rounded=0;fontStyle=1" vertex="1" parent="1">
          <mxGeometry x="930" y="1220" width="40" height="20" as="geometry" />
        </mxCell>
      </root>
    </mxGraphModel>
  </diagram>
</mxfile>
